# xmcd CD database file
#
# Track frame offsets:
#	150
#	21293
#	42471
#	59572
#	80414
#	93814
#	115549
#	140341
#	167159
#
# Disc length: 2514 seconds
#
# Revision: 9
# Processed by: cddbd v1.5.2PL0 Copyright (c) Steve Scherf et al.
# Submitted via: CDex 1.79
#
DISCID=6f09d009
DTITLE=Francesco Guccini - Fra la Via Emilia e il West [CD1)
DYEAR=1984
DGENRE=Pop-Folk
TTITLE0=Canzone per un'amica
TTITLE1=Autogrill
TTITLE2=Il vecchio e il bambino
TTITLE3=Il pensionato
TTITLE4=L'isola non trovata
TTITLE5=Asia
TTITLE6=Canzone della bambina portoghese
TTITLE7=Canzone delle osterie di fuori porta
TTITLE8=Il frate
EXTD=YEAR: 1984
EXTT0=
EXTT1=
EXTT2=
EXTT3=
EXTT4=
EXTT5=
EXTT6=
EXTT7=
EXTT8=
PLAYORDER=
